<svg xmlns="http://www.w3.org/2000/svg" width="340" height="320" viewBox="0 0 340 320" role="img" aria-labelledby="title desc"><title id="title">Naman’s Toolbox</title><desc id="desc">Languages: TypeScript, JavaScript, Python, Java, C/C++. Frontend: React, Next.js, Tailwind CSS, HTML, CSS. Backend: Node.js, Express, REST APIs. Tools: Git, Figma, Docker, Vercel, DaVinci Resolve.</desc><style>text{font-family:-apple-system,BlinkMacSystemFont,"Segoe UI",Roboto,"Helvetica Neue",sans-serif;}.cat{font-family:ui-monospace,SFMono-Regular,Menlo,Monaco,Consolas,monospace;font-size:9.5px;font-weight:600;letter-spacing:0.08em;}.item{font-size:11.5px;font-weight:500;}</style><rect x="0.5" y="0.5" width="339" height="319" rx="8" fill="#ffffff" stroke="#d0d7de"/><line x1="168" y1="14" x2="168" y2="306" stroke="#eaeef2" stroke-width="1"/><line x1="14" y1="164" x2="326" y2="164" stroke="#eaeef2" stroke-width="1"/><text x="16" y="24" fill="#656d76" class="cat">LANGUAGES</text><rect x="16" y="34" width="105" height="21" rx="4" fill="#f6f8fa" stroke="#d0d7de" stroke-width="0.8"/><svg x="22" y="38" width="13" height="13" viewBox="0 0 24 24" fill="#3178c6"><path d="M1.125 0C.502 0 0 .502 0 1.125v21.75C0 23.498.502 24 1.125 24h21.75c.623 0 1.125-.502 1.125-1.125V1.125C24 .502 23.498 0 22.875 0zm17.363 9.75c.612 0 1.154.037 1.627.111a6.38 6.38 0 0 1 1.306.34v2.458a3.95 3.95 0 0 0-.643-.361 5.093 5.093 0 0 0-.717-.26 5.453 5.453 0 0 0-1.426-.2c-.3 0-.573.028-.819.086a2.1 2.1 0 0 0-.623.242c-.17.104-.3.229-.393.374a.888.888 0 0 0-.14.49c0 .196.053.373.156.529.104.156.252.304.443.444s.423.276.696.41c.273.135.582.274.926.416.47.197.892.407 1.266.628.374.222.695.473.963.753.268.279.472.598.614.957.142.359.214.776.214 1.253 0 .657-.125 1.21-.373 1.656a3.033 3.033 0 0 1-1.012 1.085 4.38 4.38 0 0 1-1.487.596c-.566.12-1.163.18-1.79.18a9.916 9.916 0 0 1-1.84-.164 5.544 5.544 0 0 1-1.512-.493v-2.63a5.033 5.033 0 0 0 3.237 1.2c.333 0 .624-.03.872-.09.249-.06.456-.144.623-.25.166-.108.29-.234.373-.38a1.023 1.023 0 0 0-.074-1.089 2.12 2.12 0 0 0-.537-.5 5.597 5.597 0 0 0-.807-.444 27.72 27.72 0 0 0-1.007-.436c-.918-.383-1.602-.852-2.053-1.405-.45-.553-.676-1.222-.676-2.005 0-.614.123-1.141.369-1.582.246-.441.58-.804 1.004-1.089a4.494 4.494 0 0 1 1.47-.629 7.536 7.536 0 0 1 1.77-.201zm-15.113.188h9.563v2.166H9.506v9.646H6.789v-9.646H3.375z"/></svg><text x="40" y="48.5" fill="#1f2328" class="item">TypeScript</text><rect x="16" y="59" width="105" height="21" rx="4" fill="#f6f8fa" stroke="#d0d7de" stroke-width="0.8"/><svg x="22" y="63" width="13" height="13" viewBox="0 0 24 24" fill="#f7df1e"><path d="M0 0h24v24H0V0zm22.034 18.276c-.175-1.095-.888-2.015-3.003-2.873-.736-.345-1.554-.585-1.797-1.14-.091-.33-.105-.51-.046-.705.15-.646.915-.84 1.515-.66.39.12.75.42.976.9 1.034-.676 1.034-.676 1.755-1.125-.27-.42-.404-.601-.586-.78-.63-.705-1.469-1.065-2.834-1.034l-.705.089c-.676.165-1.32.525-1.71 1.005-1.14 1.291-.811 3.541.569 4.471 1.365 1.02 3.361 1.244 3.616 2.205.24 1.17-.87 1.545-1.966 1.41-.811-.18-1.26-.586-1.755-1.336l-1.83 1.051c.21.48.45.689.81 1.109 1.74 1.756 6.09 1.666 6.871-1.004.029-.09.24-.705.074-1.65l.046.067zm-8.983-7.245h-2.248c0 1.938-.009 3.864-.009 5.805 0 1.232.063 2.363-.138 2.711-.33.689-1.18.601-1.566.48-.396-.196-.597-.466-.83-.855-.063-.105-.11-.196-.127-.196l-1.825 1.125c.305.63.75 1.172 1.324 1.517.855.51 2.004.675 3.207.405.783-.226 1.458-.691 1.811-1.411.51-.93.402-2.07.397-3.346.012-2.054 0-4.109 0-6.179l.004-.056z"/></svg><text x="40" y="73.5" fill="#1f2328" class="item">JavaScript</text><rect x="16" y="84" width="78" height="21" rx="4" fill="#f6f8fa" stroke="#d0d7de" stroke-width="0.8"/><svg x="22" y="88" width="13" height="13" viewBox="0 0 24 24" fill="#3776ab"><path d="M14.25.18l.9.2.73.26.59.3.45.32.34.34.25.34.16.33.1.3.04.26.02.2-.01.13V8.5l-.05.63-.13.55-.21.46-.26.38-.3.31-.33.25-.35.19-.35.14-.33.1-.3.07-.26.04-.21.02H8.77l-.69.05-.59.14-.5.22-.41.27-.33.32-.27.35-.2.36-.15.37-.1.35-.07.32-.04.27-.02.21v3.06H3.17l-.21-.03-.28-.07-.32-.12-.35-.18-.36-.26-.36-.36-.35-.46-.32-.59-.28-.73-.21-.88-.14-1.05-.05-1.23.06-1.22.16-1.04.24-.87.32-.71.36-.57.4-.44.42-.33.42-.24.4-.16.36-.1.32-.05.24-.01h.16l.06.01h8.16v-.83H6.18l-.01-2.75-.02-.37.05-.34.11-.31.17-.28.25-.26.31-.23.38-.2.44-.18.51-.15.58-.12.64-.1.71-.06.77-.04.84-.02 1.27.05zm-6.3 1.98l-.23.33-.08.41.08.41.23.34.33.22.41.09.41-.09.33-.22.23-.34.08-.41-.08-.41-.23-.33-.33-.22-.41-.09-.41.09zm13.09 3.95l.28.06.32.12.35.18.36.27.36.35.35.47.32.59.28.73.21.88.14 1.04.05 1.23-.06 1.23-.16 1.04-.24.86-.32.71-.36.57-.4.45-.42.33-.42.24-.4.16-.36.09-.32.05-.24.02-.16-.01h-8.22v.82h5.84l.01 2.76.02.36-.05.34-.11.31-.17.29-.25.25-.31.24-.38.2-.44.17-.51.15-.58.13-.64.09-.71.07-.77.04-.84.01-1.27-.04-1.07-.14-.9-.2-.73-.25-.59-.3-.45-.33-.34-.34-.25-.34-.16-.33-.1-.3-.04-.25-.02-.2.01-.13v-5.34l.05-.64.13-.54.21-.46.26-.38.3-.32.33-.24.35-.2.35-.14.33-.1.3-.06.26-.04.21-.02.13-.01h5.84l.69-.05.59-.14.5-.21.41-.28.33-.32.27-.35.2-.36.15-.36.1-.35.07-.32.04-.28.02-.21V6.07h2.09l.14.01zm-6.47 14.25l-.23.33-.08.41.08.41.23.33.33.23.41.08.41-.08.33-.23.23-.33.08-.41-.08-.41-.23-.33-.33-.23-.41-.08-.41.08z"/></svg><text x="40" y="98.5" fill="#1f2328" class="item">Python</text><rect x="16" y="109" width="64" height="21" rx="4" fill="#f6f8fa" stroke="#d0d7de" stroke-width="0.8"/><svg x="22" y="113" width="13" height="13" viewBox="0 0 24 24" fill="#ea2d2e"><path d="M11.915 0 11.7.215C9.515 2.4 7.47 6.39 6.046 10.483c-1.064 1.024-3.633 2.81-3.711 3.551-.093.87 1.746 2.611 1.55 3.235-.198.625-1.304 1.408-1.014 1.939.1.188.823.011 1.277-.491a13.389 13.389 0 0 0-.017 2.14c.076.906.27 1.668.643 2.232.372.563.956.911 1.667.911.397 0 .727-.114 1.024-.264.298-.149.571-.33.91-.5.68-.34 1.634-.666 3.53-.604 1.903.062 2.872.39 3.559.704.687.314 1.15.664 1.925.664.767 0 1.395-.336 1.807-.9.412-.563.631-1.33.72-2.24.06-.623.055-1.32 0-2.066.454.45 1.117.604 1.213.424.29-.53-.816-1.314-1.013-1.937-.198-.624 1.642-2.366 1.549-3.236-.08-.748-2.707-2.568-3.748-3.586C16.428 6.374 14.308 2.394 12.13.215zm.175 6.038a2.95 2.95 0 0 1 2.943 2.942 2.95 2.95 0 0 1-2.943 2.943A2.95 2.95 0 0 1 9.148 8.98a2.95 2.95 0 0 1 2.942-2.942z"/></svg><text x="40" y="123.5" fill="#1f2328" class="item">Java</text><rect x="16" y="134" width="71" height="21" rx="4" fill="#f6f8fa" stroke="#d0d7de" stroke-width="0.8"/><svg x="22" y="138" width="13" height="13" viewBox="0 0 24 24" fill="#00599c"><path d="M22.394 6c-.167-.29-.398-.543-.652-.69L12.926.22c-.509-.294-1.34-.294-1.848 0L2.26 5.31c-.508.293-.923 1.013-.923 1.6v10.18c0 .294.104.62.271.91.167.29.398.543.652.69l8.816 5.09c.508.293 1.34.293 1.848 0l8.816-5.09c.254-.147.485-.4.652-.69.167-.29.27-.616.27-.91V6.91c.003-.294-.1-.62-.268-.91zM12 19.11c-3.92 0-7.109-3.19-7.109-7.11 0-3.92 3.19-7.11 7.11-7.11a7.133 7.133 0 016.156 3.553l-3.076 1.78a3.567 3.567 0 00-3.08-1.78A3.56 3.56 0 008.444 12 3.56 3.56 0 0012 15.555a3.57 3.57 0 003.08-1.778l3.078 1.78A7.135 7.135 0 0112 19.11zm7.11-6.715h-.79v.79h-.79v-.79h-.79v-.79h.79v-.79h.79v.79h.79zm2.962 0h-.79v.79h-.79v-.79h-.79v-.79h.79v-.79h.79v.79h.79z"/></svg><text x="40" y="148.5" fill="#1f2328" class="item">C/C++</text><text x="178" y="24" fill="#656d76" class="cat">FRONTEND</text><rect x="178" y="34" width="71" height="21" rx="4" fill="#f6f8fa" stroke="#d0d7de" stroke-width="0.8"/><svg x="184" y="38" width="13" height="13" viewBox="0 0 24 24" fill="#61dafb"><path d="M14.23 12.004a2.236 2.236 0 0 1-2.235 2.236 2.236 2.236 0 0 1-2.236-2.236 2.236 2.236 0 0 1 2.235-2.236 2.236 2.236 0 0 1 2.236 2.236zm2.648-10.69c-1.346 0-3.107.96-4.888 2.622-1.78-1.653-3.542-2.602-4.887-2.602-.41 0-.783.093-1.106.278-1.375.793-1.683 3.264-.973 6.365C1.98 8.917 0 10.42 0 12.004c0 1.59 1.99 3.097 5.043 4.03-.704 3.113-.39 5.588.988 6.38.32.187.69.275 1.102.275 1.345 0 3.107-.96 4.888-2.624 1.78 1.654 3.542 2.603 4.887 2.603.41 0 .783-.09 1.106-.275 1.374-.792 1.683-3.263.973-6.365C22.02 15.096 24 13.59 24 12.004c0-1.59-1.99-3.097-5.043-4.032.704-3.11.39-5.587-.988-6.38-.318-.184-.688-.277-1.092-.278zm-.005 1.09v.006c.225 0 .406.044.558.127.666.382.955 1.835.73 3.704-.054.46-.142.945-.25 1.44-.96-.236-2.006-.417-3.107-.534-.66-.905-1.345-1.727-2.035-2.447 1.592-1.48 3.087-2.292 4.105-2.295z"/></svg><text x="202" y="48.5" fill="#1f2328" class="item">React</text><rect x="178" y="59" width="85" height="21" rx="4" fill="#f6f8fa" stroke="#d0d7de" stroke-width="0.8"/><svg x="184" y="63" width="13" height="13" viewBox="0 0 24 24" fill="#ffffff"><path d="M18.665 21.978C16.758 23.255 14.465 24 12 24 5.377 24 0 18.623 0 12S5.377 0 12 0s12 5.377 12 12c0 3.583-1.574 6.801-4.067 9.001L9.219 7.2H7.2v9.596h1.615V9.251l9.85 12.727Zm-3.332-8.533 1.6 2.061V7.2h-1.6v6.245Z"/></svg><text x="202" y="73.5" fill="#1f2328" class="item">Next.js</text><rect x="178" y="84" width="119" height="21" rx="4" fill="#f6f8fa" stroke="#d0d7de" stroke-width="0.8"/><svg x="184" y="88" width="13" height="13" viewBox="0 0 24 24" fill="#38bdf8"><path d="M12.001,4.8c-3.2,0-5.2,1.6-6,4.8c1.2-1.6,2.6-2.2,4.2-1.8c0.913,0.228,1.565,0.89,2.288,1.624 C13.666,10.618,15.027,12,18.001,12c3.2,0,5.2-1.6,6-4.8c-1.2,1.6-2.6,2.2-4.2,1.8c-0.913-0.228-1.565-0.89-2.288-1.624 C16.337,6.182,14.976,4.8,12.001,4.8z M6.001,12c-3.2,0-5.2,1.6-6,4.8c1.2-1.6,2.6-2.2,4.2-1.8c0.913,0.228,1.565,0.89,2.288,1.624 c1.177,1.194,2.538,2.576,5.512,2.576c3.2,0,5.2-1.6,6-4.8c-1.2,1.6-2.6,2.2-4.2,1.8c-0.913-0.228-1.565-0.89-2.288-1.624 C10.337,13.382,8.976,12,6.001,12z"/></svg><text x="202" y="98.5" fill="#1f2328" class="item">Tailwind CSS</text><rect x="178" y="109" width="64" height="21" rx="4" fill="#f6f8fa" stroke="#d0d7de" stroke-width="0.8"/><svg x="184" y="113" width="13" height="13" viewBox="0 0 24 24" fill="#e34f26"><path d="M1.5 0h21l-1.91 21.563L11.977 24l-8.564-2.438L1.5 0zm7.031 9.75l-.232-2.718 10.059.003.23-2.622L5.412 4.41l.698 8.01h9.126l-.326 3.426-2.91.804-2.955-.81-.188-2.11H6.248l.33 4.171L12 19.351l5.379-1.443.744-8.157H8.531z"/></svg><text x="202" y="123.5" fill="#1f2328" class="item">HTML</text><rect x="178" y="134" width="57" height="21" rx="4" fill="#f6f8fa" stroke="#d0d7de" stroke-width="0.8"/><svg x="184" y="138" width="13" height="13" viewBox="0 0 24 24" fill="#1572b6"><path d="M0 0v20.16A3.84 3.84 0 0 0 3.84 24h16.32A3.84 3.84 0 0 0 24 20.16V3.84A3.84 3.84 0 0 0 20.16 0Zm14.256 13.08c1.56 0 2.28 1.08 2.304 2.64h-1.608c.024-.288-.048-.6-.144-.84-.096-.192-.288-.264-.552-.264-.456 0-.696.264-.696.84-.024.576.288.888.768 1.08.72.288 1.608.744 1.92 1.296q.432.648.432 1.656c0 1.608-.912 2.592-2.496 2.592-1.656 0-2.4-1.032-2.424-2.688h1.68c0 .792.264 1.176.792 1.176.264 0 .456-.072.552-.24.192-.312.24-1.176-.048-1.512-.312-.408-.912-.6-1.32-.816q-.828-.396-1.224-.936c-.24-.36-.36-.888-.36-1.536 0-1.44.936-2.472 2.424-2.448"/></svg><text x="202" y="148.5" fill="#1f2328" class="item">CSS</text><text x="16" y="182" fill="#656d76" class="cat">BACKEND</text><rect x="16" y="192" width="85" height="21" rx="4" fill="#f6f8fa" stroke="#d0d7de" stroke-width="0.8"/><svg x="22" y="196" width="13" height="13" viewBox="0 0 24 24" fill="#5fa04e"><path d="M11.998,24c-0.321,0-0.641-0.084-0.922-0.247l-2.936-1.737c-0.438-0.245-0.224-0.332-0.08-0.383 c0.585-0.203,0.703-0.25,1.328-0.604c0.065-0.037,0.151-0.023,0.218,0.017l2.256,1.339c0.082,0.045,0.197,0.045,0.272,0l8.795-5.076 c0.082-0.047,0.134-0.141,0.134-0.238V6.921c0-0.099-0.053-0.192-0.137-0.242l-8.791-5.072c-0.081-0.047-0.189-0.047-0.271,0 L3.075,6.68C2.99,6.729,2.936,6.825,2.936,6.921v10.15c0,0.097,0.054,0.189,0.139,0.235l2.409,1.392 c1.307,0.654,2.108-0.116,2.108-0.89V7.787c0-0.142,0.114-0.253,0.256-0.253h1.115c0.139,0,0.255,0.112,0.255,0.253v10.021 c0,1.745-0.95,2.745-2.604,2.745c-0.508,0-0.909,0-2.026-0.551L2.28,18.675c-0.57-0.329-0.922-0.945-0.922-1.604V6.921 c0-0.659,0.353-1.275,0.922-1.603l8.795-5.082c0.557-0.315,1.296-0.315,1.848,0l8.794,5.082c0.57,0.329,0.924,0.944,0.924,1.603 v10.15c0,0.659-0.354,1.273-0.924,1.604l-8.794,5.078C12.643,23.916,12.324,24,11.998,24z"/></svg><text x="40" y="206.5" fill="#1f2328" class="item">Node.js</text><rect x="16" y="217" width="85" height="21" rx="4" fill="#f6f8fa" stroke="#d0d7de" stroke-width="0.8"/><svg x="22" y="221" width="13" height="13" viewBox="0 0 24 24" fill="#888888"><path d="M12.262 16.666h1.146l6.975-9.325H19.22zm9.778 1.441v.004l-4.334-5.706-.557.74 4.873 6.682H.945V4.173h9.505l5.026 6.7.574-.772-4.374-5.928h.003l-.719-.945H0v17.544h24z"/></svg><text x="40" y="231.5" fill="#1f2328" class="item">Express</text><rect x="16" y="242" width="98" height="21" rx="4" fill="#f6f8fa" stroke="#d0d7de" stroke-width="0.8"/><svg x="22" y="246" width="13" height="13" viewBox="0 0 24 24" fill="#3b82f6"><path d="M12 2C6.48 2 2 6.48 2 12s4.48 10 10 10 10-4.48 10-10S17.52 2 12 2zm-1 14H9v-2h2v2zm0-4H9V7h2v5zm4 4h-2v-2h2v2zm0-4h-2V7h2v5z"/></svg><text x="40" y="256.5" fill="#1f2328" class="item">REST APIs</text><text x="178" y="182" fill="#656d76" class="cat">TOOLS</text><rect x="178" y="192" width="57" height="21" rx="4" fill="#f6f8fa" stroke="#d0d7de" stroke-width="0.8"/><svg x="184" y="196" width="13" height="13" viewBox="0 0 24 24" fill="#f05032"><path d="M13.09 23.549a1.54 1.54 0 0 1-2.18 0L.451 13.089a1.54 1.54 0 0 1 0-2.179l7.191-7.19 2.733 2.733a1.85 1.85 0 0 0 .964 2.326v6.66a1.849 1.849 0 1 0 1.54 0V8.957l2.508 2.508a1.85 1.85 0 1 0 1.09-1.09l-2.634-2.634a1.85 1.85 0 0 0-2.378-2.377L8.73 2.63 10.91.451a1.54 1.54 0 0 1 2.179 0l10.459 10.46a1.54 1.54 0 0 1 0 2.179z"/></svg><text x="202" y="206.5" fill="#1f2328" class="item">Git</text><rect x="178" y="217" width="71" height="21" rx="4" fill="#f6f8fa" stroke="#d0d7de" stroke-width="0.8"/><svg x="184" y="221" width="13" height="13" viewBox="0 0 24 24" fill="#f24e1e"><path d="M15.852 8.981h-4.588V0h4.588c2.476 0 4.49 2.014 4.49 4.49s-2.014 4.491-4.49 4.491zM12.735 7.51h3.117c1.665 0 3.019-1.355 3.019-3.019s-1.355-3.019-3.019-3.019h-3.117V7.51zm0 1.471H8.148c-2.476 0-4.49-2.014-4.49-4.49S5.672 0 8.148 0h4.588v8.981zm-4.587-7.51c-1.665 0-3.019 1.355-3.019 3.019s1.354 3.02 3.019 3.02h3.117V1.471H8.148zm4.587 15.019H8.148c-2.476 0-4.49-2.014-4.49-4.49s2.014-4.49 4.49-4.49h4.588v8.98zM8.148 8.981c-1.665 0-3.019 1.355-3.019 3.019s1.355 3.019 3.019 3.019h3.117V8.981H8.148zM8.172 24c-2.489 0-4.515-2.014-4.515-4.49s2.014-4.49 4.49-4.49h4.588v4.441c0 2.503-2.047 4.539-4.563 4.539z"/></svg><text x="202" y="231.5" fill="#1f2328" class="item">Figma</text><rect x="178" y="242" width="78" height="21" rx="4" fill="#f6f8fa" stroke="#d0d7de" stroke-width="0.8"/><svg x="184" y="246" width="13" height="13" viewBox="0 0 24 24" fill="#2496ed"><path d="M13.983 11.078h2.119a.186.186 0 00.186-.185V9.006a.186.186 0 00-.186-.186h-2.119a.185.185 0 00-.185.185v1.888c0 .102.083.185.185.185m-2.954-5.43h2.118a.186.186 0 00.186-.186V3.574a.186.186 0 00-.186-.185h-2.118a.185.185 0 00-.185.185v1.888c0 .102.082.185.185.185"/></svg><text x="202" y="256.5" fill="#1f2328" class="item">Docker</text><rect x="178" y="267" width="78" height="21" rx="4" fill="#f6f8fa" stroke="#d0d7de" stroke-width="0.8"/><svg x="184" y="271" width="13" height="13" viewBox="0 0 24 24" fill="#1f2328"><path d="m12 1.608 12 20.784H0Z"/></svg><text x="202" y="281.5" fill="#1f2328" class="item">Vercel</text><rect x="178" y="292" width="139" height="21" rx="4" fill="#f6f8fa" stroke="#d0d7de" stroke-width="0.8"/><svg x="184" y="296" width="13" height="13" viewBox="0 0 24 24" fill="#c74332"><path d="M17.621 0 5.977.004c-1.37 0-2.756.345-3.762 1.11a4.925 4.925 0 0 0-1.61 2.003C.233 3.93 0 5.02 0 5.951l.012 12.2c.002 1.604.479 3.057 1.461 4.112.984 1.056 2.462 1.683 4.331 1.691L16.856 24c1.26.005 3.095-.036 4.303-.714 1.075-.605 2.025-1.556 2.497-2.984.278-.84.345-2.084.344-3.147l-.021-11.13c-.002-.888-.15-2.023-.547-2.934-.425-.976-1.181-1.815-2.322-2.425C20.353.26 19.123 0 17.622 0z"/></svg><text x="202" y="306.5" fill="#1f2328" class="item">DaVinci Resolve</text></svg>